/* XPM */
static const char *grid_small[] = {
/* columns rows colors chars-per-pixel */
"24 24 163 2",
"   c #A70404",
".  c #AB0505",
"X  c #AB0A0A",
"o  c #B10707",
"O  c #B30B0B",
"+  c #B80C0C",
"@  c #AE1212",
"#  c #B31212",
"$  c #B91212",
"%  c #B41C1C",
"&  c #B91B1B",
"*  c #B52020",
"=  c #B92424",
"-  c #BB2A2A",
";  c #C71313",
":  c #CA1515",
">  c #CF1B1B",
",  c #CF2323",
"<  c #CA2E2E",
"1  c #DD2020",
"2  c #D02E2E",
"3  c #CB3333",
"4  c #E32626",
"5  c #E42B2B",
"6  c #E82B2B",
"7  c #E43131",
"8  c #E83535",
"9  c #E53939",
"0  c #E93C3C",
"q  c #F13A3A",
"w  c #D05F02",
"e  c #D16303",
"r  c #D76A07",
"t  c #D76E09",
"y  c #D96D08",
"u  c #D7740B",
"i  c #DA720B",
"p  c #DB7C0F",
"a  c #DB7D10",
"s  c #CC4D4D",
"d  c #D24545",
"f  c #D34F4F",
"g  c #DC4848",
"h  c #CF5252",
"j  c #D45858",
"k  c #E54040",
"l  c #E94545",
"z  c #E64C4C",
"x  c #EB4D4D",
"c  c #F24242",
"v  c #F24A4A",
"b  c #E45151",
"n  c #EB5555",
"m  c #E85C5C",
"M  c #F25454",
"N  c #F35D5D",
"B  c #EA6161",
"V  c #EB6A6A",
"C  c #F56666",
"Z  c #F46E6E",
"A  c #EB7070",
"S  c #E47979",
"D  c #EC7979",
"F  c #F57373",
"G  c #F67B7B",
"H  c #56A40C",
"J  c #5AAA0E",
"K  c #5AA512",
"L  c #5DAA13",
"P  c #5EA61A",
"I  c #5FA918",
"U  c #61AD17",
"Y  c #62AC1D",
"T  c #64BA12",
"R  c #69BF16",
"E  c #65AD21",
"W  c #6AB027",
"Q  c #6BB129",
"!  c #73BE2A",
"~  c #6EC01E",
"^  c #76D11D",
"/  c #79D51F",
"(  c #73C227",
")  c #75C12C",
"_  c #7BD327",
"`  c #7FD72A",
"'  c #7FC63B",
"]  c #DC8212",
"[  c #E88513",
"{  c #EB8D17",
"}  c #E89219",
"|  c #E89C1E",
" . c #F3951B",
".. c #F69B1E",
"X. c #E8A422",
"o. c #E9A824",
"O. c #F5A221",
"+. c #FAA321",
"@. c #F3AA24",
"#. c #FBAC26",
"$. c #FAB228",
"%. c #F4BC2D",
"&. c #FCBA2C",
"*. c #84DE2C",
"=. c #80C63D",
"-. c #83D534",
";. c #87D938",
":. c #8CE03C",
">. c #FDC12F",
",. c #F5C330",
"<. c #FCC431",
"1. c #F5CA34",
"2. c #FDCD35",
"3. c #F9D137",
"4. c #FDD739",
"5. c #FEDC3C",
"6. c #83C543",
"7. c #85C845",
"8. c #84C448",
"9. c #8AC94D",
"0. c #8BD841",
"q. c #90DC47",
"w. c #92DA4D",
"e. c #96DE50",
"r. c #9ADC5A",
"t. c #96E34C",
"y. c #9FE55B",
"u. c #A1E65D",
"i. c #A2DF67",
"p. c #A6E36C",
"a. c #A9E96B",
"s. c #AAE374",
"d. c #B3ED7B",
"f. c #234E8A",
"g. c #28518C",
"h. c #2A5692",
"j. c #2D5995",
"k. c #325B95",
"l. c #325E99",
"z. c #3B629A",
"x. c #43699E",
"c. c #476CA0",
"v. c #4A6FA1",
"b. c #4C7FB7",
"n. c #5A8BC1",
"m. c #6593C5",
"M. c #6D93C0",
"N. c #6F9ECF",
"B. c #749DC9",
"V. c #7EA7D3",
"C. c #EC8282",
"Z. c #F68181",
"A. c #F08B8B",
"S. c #F88B8B",
"D. c #F89393",
"F. c #86A9CF",
"G. c #8EAFD4",
"H. c #8DB2D9",
"J. c #94B1D2",
"K. c #9CBADB",
"L. c #A7C1DD",
"P. c #ACC7E4",
"I. c None",
/* pixels */
"e p ] p p i e I.I.% - - - & # I.I.X = - = = & X ",
"a 1.3.1.&.@.t I.I.h A.D A B 3 I.I.% S A.D V b $ ",
"] 3.4.2.<.@.t I.I.j D.Z.Z N 2 I.I.* C.S.G C x $ ",
"p ,.2.>.&.O.r I.I.f G Z N v , I.I.% A F C M 0 + ",
"p &.<.&.#...r I.I.d Z N v q > I.I.% B C M c 6 + ",
"u @.@.O... .r I.I.3 x k 5 4 ; I.I.# g z 9 5 1 O ",
"e t t r r r w I.I.X # O O o . I.I.  O # O O o   ",
"I.I.I.I.I.I.I.I.I.I.I.I.I.I.I.I.I.I.I.I.I.I.I.I.",
"I.I.I.I.I.I.I.I.I.I.I.I.I.I.I.I.I.I.I.I.I.I.I.I.",
"P 8.9.6.=.! H I.I.] o.o.| | p I.I.@ s j f d 3 O ",
"Q s.d.a.u.0.K I.I.o.5.4.2.<.} I.I.* C.D.Z.F n & ",
"Q p.a.y.t.-.J I.I.o.4.2.>.&.{ I.I.* D Z.F N l $ ",
"W y.y.t.;.` H I.I.X.2.<.&.$.[ I.I.% V F N v 8 + ",
"Y t.t.;.*.^ J I.I.} <.&.#.+.[ I.I.% m N v q 6 + ",
"K ) ( ~ R T H I.I.p } { [ [ i I.I.X 3 2 , > : . ",
"I.I.I.I.I.I.I.I.I.I.I.I.I.I.I.I.I.I.I.I.I.I.I.I.",
"I.I.I.I.I.I.I.I.I.I.I.I.I.I.I.I.I.I.I.I.I.I.I.I.",
"g.z.x.z.z.k.f.I.I.K E E Y P H I.I.e u u u u t e ",
"x.J.K.J.F.M.k.I.I.6.s.i.r.w.! I.I.u %.1.1.%.@.u ",
"v.L.P.K.H.B.k.I.I.9.d.a.y.t.( I.I.u 1.5.2.<.$.i ",
"c.K.K.H.V.m.h.I.I.7.a.u.t.:.~ I.I.u ,.2.<.&.+.i ",
"c.H.H.F.N.n.j.I.I.=.u.t.q.*.R I.I.u &.<.&.$.+.i ",
"z.B.N.m.n.b.h.I.I.) t.;.` / T I.I.u @.$.@.+. .y ",
"g.z.z.l.l.j.f.I.I.J L L J J H I.I.e i i i y r e "
};
