/* XPM */
static const char *grid_small[] = {
/* columns rows colors chars-per-pixel */
"32 32 183 2 ",
"   c #A30000",
".  c #AA0505",
"X  c #AB0A0A",
"o  c #BD0E0E",
"O  c #AF1313",
"+  c #BF2222",
"@  c #C00F0F",
"#  c #C51313",
"$  c #C51B1B",
"%  c #D81C1C",
"&  c #C52424",
"*  c #C22828",
"=  c #DF2323",
"-  c #DF2B2B",
";  c #C53535",
":  c #C63B3B",
">  c #C83E3E",
",  c #D53E3E",
"<  c #E62525",
"1  c #E62B2B",
"2  c #F12D2D",
"3  c #E33434",
"4  c #E43D3D",
"5  c #F13434",
"6  c #F13B3B",
"7  c #CD5A00",
"8  c #D26404",
"9  c #D46A07",
"0  c #D56D08",
"q  c #D7750C",
"w  c #E27B0E",
"e  c #C94545",
"r  c #E24444",
"t  c #E84242",
"y  c #E24D4D",
"u  c #E94C4C",
"i  c #F14444",
"p  c #F24B4B",
"a  c #E35454",
"s  c #EA5555",
"d  c #E45C5C",
"f  c #EB5D5D",
"g  c #F25252",
"h  c #F35C5C",
"j  c #DF7070",
"k  c #E46363",
"l  c #EB6464",
"z  c #E56B6B",
"x  c #EC6C6C",
"c  c #F46464",
"v  c #F56C6C",
"b  c #E67575",
"n  c #EC7474",
"m  c #E77E7E",
"M  c #ED7B7B",
"N  c #F57373",
"B  c #F67A7A",
"V  c #4C9904",
"C  c #509E07",
"Z  c #539E0B",
"A  c #55A30B",
"S  c #5EB20F",
"D  c #5BA515",
"F  c #63B612",
"G  c #67B51C",
"H  c #69B81C",
"J  c #6AB522",
"K  c #6CB922",
"L  c #73BC2E",
"P  c #73B632",
"I  c #76BB34",
"U  c #79BD37",
"Y  c #7CBE3D",
"T  c #73CD1A",
"R  c #77D31C",
"E  c #77CF23",
"W  c #7CD527",
"Q  c #7EDD21",
"!  c #7DD02C",
"~  c #E28312",
"^  c #EB8714",
"/  c #E28C16",
"(  c #E3941A",
")  c #F3941A",
"_  c #F59D1E",
"`  c #F89A1D",
"'  c #EEA321",
"]  c #F4A422",
"[  c #FEA623",
"{  c #F7AB25",
"}  c #FDAD26",
"|  c #ECB027",
" . c #F3B329",
".. c #FCB429",
"X. c #F3BB2D",
"o. c #FCBC2D",
"O. c #83DE2A",
"+. c #83D433",
"@. c #89DF36",
"#. c #88D43F",
"$. c #89D93C",
"%. c #8AE036",
"&. c #F7C12F",
"*. c #FDC22F",
"=. c #F5C531",
"-. c #FDC431",
";. c #F6CB34",
":. c #FDCA34",
">. c #FDD137",
",. c #FBD338",
"<. c #FDD93B",
"1. c #FEE03E",
"2. c #8DD647",
"3. c #90DB47",
"4. c #94DD4D",
"5. c #92D750",
"6. c #99DE57",
"7. c #97D959",
"8. c #8FE141",
"9. c #90E242",
"0. c #97E44D",
"q. c #98E44E",
"w. c #99E550",
"e. c #9EE659",
"r. c #A0E75B",
"t. c #9DDA62",
"y. c #A3DD6C",
"u. c #A0E062",
"i. c #A6E865",
"p. c #A6E26C",
"a. c #ACEA6F",
"s. c #ABE375",
"d. c #ADEB71",
"f. c #AEE479",
"g. c #B4ED7D",
"h. c #FFE541",
"j. c #204A87",
"k. c #234E8A",
"l. c #26518D",
"z. c #29528D",
"x. c #2B5590",
"c. c #325A92",
"v. c #4879B3",
"b. c #4E81BA",
"n. c #5384BB",
"m. c #5C8ABE",
"M. c #6389B9",
"N. c #5488C0",
"B. c #598AC1",
"V. c #6491C3",
"C. c #6E97C5",
"Z. c #6195CA",
"A. c #6C9ACB",
"S. c #7399C5",
"D. c #779FCB",
"F. c #7DA1CA",
"G. c #76A2D1",
"H. c #E78080",
"J. c #ED8383",
"K. c #EF8D8D",
"L. c #F78585",
"P. c #F78A8A",
"I. c #F88F8F",
"U. c #F89595",
"Y. c #FA9D9D",
"T. c #FAA2A2",
"R. c #BAEF87",
"E. c #BBF089",
"W. c #85A6CC",
"Q. c #8EAACD",
"!. c #82AAD5",
"~. c #88ABD2",
"^. c #8DB2D9",
"/. c #93B2D3",
"(. c #9CB6D4",
"). c #97B9DC",
"_. c #99B9DB",
"`. c #A5BEDB",
"'. c #ACC3DE",
"]. c #A3C1E0",
"[. c #AFC9E5",
"{. c #BBD2E9",
"}. c None",
/* pixels */
"7 8 8 8 8 8 8 8 8 }.}.  . X X X . X .     }.}.  X X X X . .     ",
"8 | ;.=.X.X.| ' 8 }.}.  ; H.m b z d a +   }.}.O j m b z k d , X ",
"8 ;.1.<.<.:.:. .9 }.}.  e T.U.P.B v c *   }.}.O K.Y.I.L.N v r X ",
"8 =.<.,.:.-.o.{ 8 }.}.  e U.P.M v c g $   }.}.O J.I.L.N c s 4 . ",
"8 X.<.:.-.o...[ 9 }.}.  > P.B v c g i $   }.}.O M L.N c h p 3   ",
"8 X.:.-.o...} _ 8 }.}.  : B v c g i 5 #   }.}.O n N c g p 6 = . ",
"8  .-.o...} } ` 8 }.}.  ; v h g i 6 2 #   }.}.O l c h p 6 5 = . ",
"8 '  .{ [ _ ` ) 8 }.}.  * s p 4 3 < < o   }.}.X y u i 3 1 < %   ",
"7 9 9 8 8 8 8 8 8 }.}.  . X X X . . . .   }.}.. X X X X . . . . ",
"}.}.}.}.}.}.}.}.}.}.}.}.}.}.}.}.}.}.}.}.}.}.}.}.}.}.}.}.}.}.}.}.",
"}.}.}.}.}.}.}.}.}.}.}.}.}.}.}.}.}.}.}.}.}.}.}.}.}.}.}.}.}.}.}.}.",
"V V V V V V V V C }.}.}.7 7 7 7 7 7 7 7 }.}.}.                . ",
"Z P Y Y U I L K Z }.}.7 q ( ( ( ( / / 0 7 }.}.X > e e > ; ; &   ",
"Z y.E.g.d.i.r.3.A }.}.7 ( h.1.<.>.:.-.~ 7 }.}.O K.Y.U.P.B v y . ",
"A y.R.d.i.r.q.$.A }.}.7 ( h.<.>.:.-.o.~ 7 }.}.O K.U.L.N v h r . ",
"A t.s.i.r.q.9.+.A }.}.7 ( 1.>.:.-.o...~ 7 }.}.O M L.M v h g 3 . ",
"A 7.i.e.q.9.%.W A }.}.7 ( >.:.-.o...} w 7 }.}.O n B v h g i 1   ",
"Z 5.r.w.9.@.O.R A }.}.7 / >.o.o...} [ w 7 }.}.O x v h g i 5 = . ",
"A 2.w.9.%.O.Q T A }.}.7 / -.o...} [ [ w 7 }.}.X s c g i 5 2 % . ",
"C J K H G F F F C }.}.7 0 ~ ~ ~ w w w 9 7 }.}.. * & $ $ # # o . ",
"V V V V V V V V V }.}.}.7 7 7 7 7 7 7 7 }.}.}.                  ",
"}.}.}.}.}.}.}.}.}.}.}.}.}.}.}.}.}.}.}.}.}.}.}.}.}.}.}.}.}.}.}.}.",
"}.}.}.}.}.}.}.}.}.}.}.}.}.}.}.}.}.}.}.}.}.}.}.}.}.}.}.}.}.}.}.}.",
"k.c.c.c.c.c.c.x.k.}.}.C Z D D D D D D Z V }.}.8 9 0 0 0 9 9 9 7 ",
"z.Q.'.`._./.~.S.x.}.}.V I f.s.p.t.w.4.J V }.}.9 =.,.;.;.&.o.' 8 ",
"z.(.{.[.]._.^.D.x.}.}.V Y R.g.a.i.e.0.K V }.}.0 ,.1.,.>.:.-.' 8 ",
"z./.[.].).^.!.A.x.}.}.V Y g.a.i.e.0.8.H V }.}.0 ;.,.>.:.*.o.] 8 ",
"z.Q.]._.^.!.G.V.x.}.}.V U a.i.e.0.8.%.G V }.}.0 ;.>.:.*.o...) 8 ",
"z.W.).^.G.G.A.B.x.}.}.V I i.e.0.8.@.O.F V }.}.9 *.:.-.o...} ) 8 ",
"z.F.^.!.G.A.Z.B.z.}.}.V L e.0.9.%.O.Q S V }.}.9 X.-.o...} [ ) 8 ",
"k.M.C.V.m.n.b.v.l.}.}.V G #.+.! E T T S V }.}.9 ' ] _ ) ) ) ^ 8 ",
"j.l.l.l.k.k.l.l.j.}.}.V C Z Z Z C C C C V }.}.7 8 8 8 7 8 8 8 7 "
};
