/* XPM */
static const char *mag_small[] = {
/* columns rows colors chars-per-pixel */
"32 32 117 2",
"   c #726472AE72C1",
".  c #745174C074DB",
"X  c #77A2784E787D",
"o  c #79007A2F7A80",
"O  c #8FFF5CAC06F5",
"+  c #90F95C8004DD",
"@  c #90AD5D270726",
"#  c #91585D960751",
"$  c #91FD5E14077C",
"%  c #945A5F200718",
"&  c #92A85E8A07A3",
"*  c #87D17E8A712D",
"=  c #D5D890981F58",
"-  c #D6B7916F203B",
";  c #D7BE9271213E",
":  c #D870932E2205",
">  c #D13195EB3F90",
",  c #D6179A933983",
"<  c #A09B8818647E",
"1  c #D0A8960B40C7",
"2  c #D0EE969541E2",
"3  c #D124973F4307",
"4  c #D16197E94430",
"5  c #D1A09871454C",
"6  c #D25D999A472D",
"7  c #CB0D9D0451C3",
"8  c #F51FBC546237",
"9  c #F596BCF66321",
"0  c #F5C8BD876456",
"q  c #F5FDBE176585",
"w  c #F691BE7E65C6",
"e  c #F620BE77664E",
"r  c #121785F1A48B",
"t  c #2007895FA50B",
"y  c #2A6A89A2A2F0",
"u  c #46E092D9A5FC",
"i  c #457A921CA65B",
"p  c #490B927EA4E2",
"a  c #4BF6970CAAB9",
"s  c #55129554A59D",
"d  c #556E98F4A9C5",
"f  c #54CF9A0CAC34",
"g  c #5B359847A880",
"h  c #59EA9B42AC68",
"j  c #4AA69EE8B3E3",
"k  c #6224979BA51C",
"l  c #61CE982BA625",
"z  c #665D989FA534",
"x  c #6E669890A342",
"c  c #6CBD98EFA425",
"v  c #620E9B51AA5D",
"b  c #61B19C44AB9E",
"n  c #74CB9B75A523",
"m  c #7A3298A9A052",
"M  c #7EA49984A058",
"N  c #7B1A9D8EA66B",
"B  c #75A49FABAA48",
"V  c #76DE9FFEAADD",
"C  c #71F3A321B007",
"Z  c #7602A359AF3A",
"A  c #7A5DA588B0DA",
"S  c #819A81A881AD",
"D  c #823E851C85D0",
"F  c #865086398631",
"G  c #85418B938D3D",
"H  c #86B48CBC8E41",
"J  c #88238CE58E19",
"K  c #883C8FA1917A",
"L  c #86D6908692F5",
"P  c #8984919C93C5",
"I  c #8CBA926093CB",
"U  c #8B63929B946B",
"Y  c #856A97BE9C51",
"T  c #8E689C3D9FF1",
"R  c #9323931A92FF",
"E  c #9444958E95E5",
"W  c #95DB9AD89C23",
"Q  c #9B899B589B4B",
"!  c #998D9AD79CDC",
"~  c #99EB9CA09D59",
"^  c #9B399EF49FF0",
"/  c #85139D8AA3A8",
"(  c #84669EC6A597",
")  c #89079C6CA161",
"_  c #8F0B9E15A219",
"`  c #87D4A210A901",
"'  c #929DA09AA449",
"]  c #9A00A05AA206",
"[  c #9CA1A1A6A2F8",
"{  c #9CEDA3E8A5BC",
"}  c #956BA713ABB7",
"|  c #99CDA730AAB1",
" . c #96BAA87AAD21",
".. c #9C7DA92BAC7F",
"X. c #813EAD14B89F",
"o. c #9465AB96B1AD",
"O. c #99E7ABDFB095",
"+. c #9B45ACBCB152",
"@. c #A6F4A8FBA97C",
"#. c #AA97AA99AA99",
"$. c #AB7EAC05ACE0",
"%. c #AE8CAE8EAE8E",
"&. c #B0FBB0BDB0AE",
"*. c #B2B5B4D5B55C",
"=. c #B94BB9E8BAD9",
"-. c #BD55BD16BD06",
";. c #F020C78B8B0C",
":. c #F71DC913847B",
">. c #F74EC95884F2",
",. c #F76AC99B8542",
"<. c #F797C9DF8599",
"1. c #E6B8C8F89C8E",
"2. c #D50AC6B8B009",
"3. c #84A3B465C105",
"4. c #C9AAC9A7C9A2",
"5. c #DA5CD625CF6E",
"6. c None",
/* pixels */
"6.6.6.6.6.6.6.6.6.6.6.6.6.6.6.6.6.6.6.6.6.6.6.6.6.6.6.6.6.6.6.6.",
"6.6.6.6.6.6.6.6.6.6.6.6.6.6.6.6.6.6.6.6.6.6.6.6.6.6.6.6.6.6.6.6.",
"6.6.6.6.6.6.6.6.6.6.6.6.6.6.6.6.6.6.6.6.6.6.6.6.6.6.6.6.6.6.6.6.",
"6.6.6.6.6.6.6.6.6.6.^ [ ~ 6.6.6.6.6.6.6.6.6.6.6.6.6.6.6.6.6.6.6.",
"6.6.6.6.6.6.6.^ o.C f a h A O.E 6.6.6.6.6.6.6.6.6.6.6.6.6.6.6.6.",
"6.6.6.6.6.6...b r 6.6.6.6.6.t Z { 6.6.6.6.6.6.6.6.6.6.6.6.6.6.6.",
"6.6.6.6.6.| i 6.6.6.6.6.6.6.6.6.v ] 6.6.6.6.6.6.6.6.6.6.6.6.6.6.",
"6.6.6.6.W g 6.6.6.6.6.6.6.6.6.6.6.V 6.6.6.6.6.6.6.6.6.6.6.6.6.6.",
"6.6.6.6.` 6.6.6.6.6.6.6.6.6.6.6.6.y ' 6.6.6.6.6.6.6.6.6.6.6.6.6.",
"6.6.6.6.l 6.6.6.6.6.6.6.6.6.6.6.6.6.N 6.6.6.6.6.6.6.6.6.6.6.6.6.",
"6.6.6.I p 6.6.6.6.6.6.6.6.6.6.6.6.6.z 6.6.6.6.6.6.6.6.6.6.6.6.6.",
"6.6.6.U u 6.6.6.6.6.6.6.6.6.6.6.6.6.k 6.6.6.6.6.6.6.6.6.6.6.6.6.",
"6.6.6.J s 6.6.6.6.6.6.6.6.6.6.6.6.6.c 6.6.6.6.6.6.6.6.6.6.6.6.6.",
"6.6.6.6.x 6.6.6.6.6.6.6.6.6.6.6.6.6.M 6.6.6.6.6.6.6.6.6.6.6.6.6.",
"6.6.6.6.Y j 6.6.6.6.6.6.6.6.6.6.6.d L 6.6.6.6.6.6.6.6.6.6.6.6.6.",
"6.6.6.6.D n 6.6.6.6.6.6.6.6.6.6.6./ F 6.6.6.6.6.6.6.6.6.6.6.6.6.",
"6.6.6.6.6.K B 6.6.6.6.6.6.6.6.6.m *.&.6.6.6.6.6.6.6.6.6.6.6.6.6.",
"6.6.6.6.6.6.H ( 3.6.6.6.6.6.X.) @.-.%.6.6.6.6.6.6.6.6.6.6.6.6.6.",
"6.6.6.6.6.6.6.o P _  .+.} T G S Q #.4.$.6.6.6.6.6.6.6.6.6.6.6.6.",
"6.6.6.6.6.6.6.6.6.6.. X   6.6.6.6.6.=.5.7 + 6.6.6.6.6.6.6.6.6.6.",
"6.6.6.6.6.6.6.6.6.6.6.6.6.6.6.6.6.6.* 1.8 = O 6.6.6.6.6.6.6.6.6.",
"6.6.6.6.6.6.6.6.6.6.6.6.6.6.6.6.6.6.6.6 <.9 - @ 6.6.6.6.6.6.6.6.",
"6.6.6.6.6.6.6.6.6.6.6.6.6.6.6.6.6.6.6.6.5 <.0 - # 6.6.6.6.6.6.6.",
"6.6.6.6.6.6.6.6.6.6.6.6.6.6.6.6.6.6.6.6.6.4 ,.0 ; $ 6.6.6.6.6.6.",
"6.6.6.6.6.6.6.6.6.6.6.6.6.6.6.6.6.6.6.6.6.6.3 >.q ; & 6.6.6.6.6.",
"6.6.6.6.6.6.6.6.6.6.6.6.6.6.6.6.6.6.6.6.6.6.6.2 :.e : % 6.6.6.6.",
"6.6.6.6.6.6.6.6.6.6.6.6.6.6.6.6.6.6.6.6.6.6.6.6.1 :.w , 6.6.6.6.",
"6.6.6.6.6.6.6.6.6.6.6.6.6.6.6.6.6.6.6.6.6.6.6.6.6.> ;.2.R 6.6.6.",
"6.6.6.6.6.6.6.6.6.6.6.6.6.6.6.6.6.6.6.6.6.6.6.6.6.6.< ! 6.6.6.6.",
"6.6.6.6.6.6.6.6.6.6.6.6.6.6.6.6.6.6.6.6.6.6.6.6.6.6.6.6.6.6.6.6.",
"6.6.6.6.6.6.6.6.6.6.6.6.6.6.6.6.6.6.6.6.6.6.6.6.6.6.6.6.6.6.6.6.",
"6.6.6.6.6.6.6.6.6.6.6.6.6.6.6.6.6.6.6.6.6.6.6.6.6.6.6.6.6.6.6.6."
};
